<svg width="518" height="80" viewBox="0 0 518 80" fill="none" xmlns="http://www.w3.org/2000/svg">
<g filter="url(#filter0_d_1_3)">
<path d="M4.06818 71V1.18182H32.0227C37.1591 1.18182 41.4432 1.94318 44.875 3.46591C48.3068 4.98864 50.8864 7.10227 52.6136 9.80682C54.3409 12.4886 55.2045 15.5795 55.2045 19.0795C55.2045 21.8068 54.6591 24.2045 53.5682 26.2727C52.4773 28.3182 50.9773 30 49.0682 31.3182C47.1818 32.6136 45.0227 33.5341 42.5909 34.0795V34.7614C45.25 34.875 47.7386 35.625 50.0568 37.0114C52.3977 38.3977 54.2955 40.3409 55.75 42.8409C57.2045 45.3182 57.9318 48.2727 57.9318 51.7045C57.9318 55.4091 57.0114 58.7159 55.1705 61.625C53.3523 64.5114 50.6591 66.7955 47.0909 68.4773C43.5227 70.1591 39.125 71 33.8977 71H4.06818ZM18.8295 58.9318H30.8636C34.9773 58.9318 37.9773 58.1477 39.8636 56.5795C41.75 54.9886 42.6932 52.875 42.6932 50.2386C42.6932 48.3068 42.2273 46.6023 41.2955 45.125C40.3636 43.6477 39.0341 42.4886 37.3068 41.6477C35.6023 40.8068 33.5682 40.3864 31.2045 40.3864H18.8295V58.9318ZM18.8295 30.3977H29.7727C31.7955 30.3977 33.5909 30.0455 35.1591 29.3409C36.75 28.6136 38 27.5909 38.9091 26.2727C39.8409 24.9545 40.3068 23.375 40.3068 21.5341C40.3068 19.0114 39.4091 16.9773 37.6136 15.4318C35.8409 13.8864 33.3182 13.1136 30.0455 13.1136H18.8295V30.3977ZM131.696 36.0909C131.696 43.7045 130.253 50.1818 127.366 55.5227C124.503 60.8636 120.594 64.9432 115.639 67.7614C110.707 70.5568 105.162 71.9545 99.0028 71.9545C92.7983 71.9545 87.2301 70.5455 82.2983 67.7273C77.3665 64.9091 73.4688 60.8295 70.6051 55.4886C67.7415 50.1477 66.3097 43.6818 66.3097 36.0909C66.3097 28.4773 67.7415 22 70.6051 16.6591C73.4688 11.3182 77.3665 7.25 82.2983 4.45455C87.2301 1.63636 92.7983 0.22727 99.0028 0.22727C105.162 0.22727 110.707 1.63636 115.639 4.45455C120.594 7.25 124.503 11.3182 127.366 16.6591C130.253 22 131.696 28.4773 131.696 36.0909ZM116.73 36.0909C116.73 31.1591 115.991 27 114.514 23.6136C113.06 20.2273 111.003 17.6591 108.344 15.9091C105.685 14.1591 102.571 13.2841 99.0028 13.2841C95.4347 13.2841 92.321 14.1591 89.6619 15.9091C87.0028 17.6591 84.9347 20.2273 83.4574 23.6136C82.0028 27 81.2756 31.1591 81.2756 36.0909C81.2756 41.0227 82.0028 45.1818 83.4574 48.5682C84.9347 51.9545 87.0028 54.5227 89.6619 56.2727C92.321 58.0227 95.4347 58.8977 99.0028 58.8977C102.571 58.8977 105.685 58.0227 108.344 56.2727C111.003 54.5227 113.06 51.9545 114.514 48.5682C115.991 45.1818 116.73 41.0227 116.73 36.0909ZM142.631 1.18182H160.835L180.062 48.0909H180.881L200.108 1.18182H218.312V71H203.994V25.5568H203.415L185.347 70.6591H175.597L157.528 25.3864H156.949V71H142.631V1.18182ZM245.236 1.18182V71H230.474V1.18182H245.236ZM315.778 1.18182V71H303.028L272.653 27.0568H272.142V71H257.381V1.18182H270.335L300.472 45.0909H301.085V1.18182H315.778ZM365.849 21.2614C365.577 18.5114 364.406 16.375 362.338 14.8523C360.27 13.3295 357.463 12.5682 353.918 12.5682C351.509 12.5682 349.474 12.9091 347.815 13.5909C346.156 14.25 344.884 15.1705 343.997 16.3523C343.134 17.5341 342.702 18.875 342.702 20.375C342.656 21.625 342.918 22.7159 343.486 23.6477C344.077 24.5795 344.884 25.3864 345.906 26.0682C346.929 26.7273 348.111 27.3068 349.452 27.8068C350.793 28.2841 352.224 28.6932 353.747 29.0341L360.02 30.5341C363.065 31.2159 365.861 32.125 368.406 33.2614C370.952 34.3977 373.156 35.7955 375.02 37.4545C376.884 39.1136 378.327 41.0682 379.349 43.3182C380.395 45.5682 380.929 48.1477 380.952 51.0568C380.929 55.3295 379.838 59.0341 377.679 62.1705C375.543 65.2841 372.452 67.7045 368.406 69.4318C364.384 71.1364 359.531 71.9886 353.849 71.9886C348.213 71.9886 343.304 71.125 339.122 69.3977C334.963 67.6705 331.713 65.1136 329.372 61.7273C327.054 58.3182 325.838 54.1023 325.724 49.0795H340.009C340.168 51.4205 340.838 53.375 342.02 54.9432C343.224 56.4886 344.827 57.6591 346.827 58.4545C348.849 59.2273 351.134 59.6136 353.679 59.6136C356.179 59.6136 358.349 59.25 360.19 58.5227C362.054 57.7955 363.497 56.7841 364.52 55.4886C365.543 54.1932 366.054 52.7045 366.054 51.0227C366.054 49.4545 365.588 48.1364 364.656 47.0682C363.747 46 362.406 45.0909 360.634 44.3409C358.884 43.5909 356.736 42.9091 354.19 42.2955L346.588 40.3864C340.702 38.9545 336.054 36.7159 332.645 33.6705C329.236 30.625 327.543 26.5227 327.565 21.3636C327.543 17.1364 328.668 13.4432 330.94 10.2841C333.236 7.125 336.384 4.65909 340.384 2.88636C344.384 1.11363 348.929 0.22727 354.02 0.22727C359.202 0.22727 363.724 1.11363 367.588 2.88636C371.474 4.65909 374.497 7.125 376.656 10.2841C378.815 13.4432 379.929 17.1023 379.997 21.2614H365.849ZM455.04 36.0909C455.04 43.7045 453.597 50.1818 450.71 55.5227C447.847 60.8636 443.938 64.9432 438.983 67.7614C434.051 70.5568 428.506 71.9545 422.347 71.9545C416.142 71.9545 410.574 70.5455 405.642 67.7273C400.71 64.9091 396.813 60.8295 393.949 55.4886C391.085 50.1477 389.653 43.6818 389.653 36.0909C389.653 28.4773 391.085 22 393.949 16.6591C396.813 11.3182 400.71 7.25 405.642 4.45455C410.574 1.63636 416.142 0.22727 422.347 0.22727C428.506 0.22727 434.051 1.63636 438.983 4.45455C443.938 7.25 447.847 11.3182 450.71 16.6591C453.597 22 455.04 28.4773 455.04 36.0909ZM440.074 36.0909C440.074 31.1591 439.335 27 437.858 23.6136C436.403 20.2273 434.347 17.6591 431.688 15.9091C429.028 14.1591 425.915 13.2841 422.347 13.2841C418.778 13.2841 415.665 14.1591 413.006 15.9091C410.347 17.6591 408.278 20.2273 406.801 23.6136C405.347 27 404.619 31.1591 404.619 36.0909C404.619 41.0227 405.347 45.1818 406.801 48.5682C408.278 51.9545 410.347 54.5227 413.006 56.2727C415.665 58.0227 418.778 58.8977 422.347 58.8977C425.915 58.8977 429.028 58.0227 431.688 56.2727C434.347 54.5227 436.403 51.9545 437.858 48.5682C439.335 45.1818 440.074 41.0227 440.074 36.0909ZM465.974 71V1.18182H513.02V13.3523H480.736V29.9886H510.599V42.1591H480.736V58.8295H513.156V71H465.974Z" fill="#0D8DEA" shape-rendering="crispEdges"/>
<path d="M4.06818 71H3.06818V72H4.06818V71ZM4.06818 1.18182V0.181816H3.06818V1.18182H4.06818ZM44.875 3.46591L44.4694 4.37997L44.4694 4.37997L44.875 3.46591ZM52.6136 9.80682L51.7708 10.3451L51.7729 10.3483L52.6136 9.80682ZM53.5682 26.2727L54.4505 26.7433L54.4527 26.7393L53.5682 26.2727ZM49.0682 31.3182L49.6343 32.1425L49.6364 32.1411L49.0682 31.3182ZM42.5909 34.0795L42.372 33.1038L41.5909 33.279V34.0795H42.5909ZM42.5909 34.7614H41.5909V35.7195L42.5482 35.7605L42.5909 34.7614ZM50.0568 37.0114L49.5436 37.8696L49.5472 37.8718L50.0568 37.0114ZM55.75 42.8409L54.8856 43.3438L54.8877 43.3472L55.75 42.8409ZM55.1705 61.625L54.3254 61.0903L54.3243 61.092L55.1705 61.625ZM47.0909 68.4773L46.6646 67.5727L46.6646 67.5727L47.0909 68.4773ZM18.8295 58.9318H17.8295V59.9318H18.8295V58.9318ZM39.8636 56.5795L40.5029 57.3485L40.5083 57.344L39.8636 56.5795ZM41.2955 45.125L40.4497 45.6585L40.4497 45.6585L41.2955 45.125ZM37.3068 41.6477L36.8644 42.5445L36.8691 42.5468L37.3068 41.6477ZM18.8295 40.3864V39.3864H17.8295V40.3864H18.8295ZM18.8295 30.3977H17.8295V31.3977H18.8295V30.3977ZM35.1591 29.3409L35.5689 30.2531L35.5749 30.2504L35.1591 29.3409ZM38.9091 26.2727L38.0925 25.6955L38.0859 25.705L38.9091 26.2727ZM37.6136 15.4318L36.9565 16.1856L36.9613 16.1897L37.6136 15.4318ZM18.8295 13.1136V12.1136H17.8295V13.1136H18.8295ZM5.06818 71V1.18182H3.06818V71H5.06818ZM4.06818 2.18182H32.0227V0.181816H4.06818V2.18182ZM32.0227 2.18182C37.0677 2.18182 41.2031 2.93069 44.4694 4.37997L45.2806 2.55185C41.6832 0.955674 37.2505 0.181816 32.0227 0.181816V2.18182ZM44.4694 4.37997C47.753 5.8369 50.1662 7.83258 51.7709 10.3451L53.4564 9.26857C51.6065 6.37197 48.8607 4.14037 45.2806 2.55185L44.4694 4.37997ZM51.7729 10.3483C53.3862 12.8531 54.2045 15.7522 54.2045 19.0795H56.2045C56.2045 15.4069 55.2956 12.1242 53.4544 9.26534L51.7729 10.3483ZM54.2045 19.0795C54.2045 21.6713 53.687 23.904 52.6837 25.8062L54.4527 26.7393C55.6312 24.5051 56.2045 21.9423 56.2045 19.0795H54.2045ZM52.6858 25.8021C51.6701 27.7067 50.2779 29.2677 48.5 30.4953L49.6364 32.1411C51.6767 30.7323 53.2845 28.9297 54.4505 26.7433L52.6858 25.8021ZM48.5021 30.4938C46.7298 31.711 44.6907 32.5837 42.372 33.1038L42.8098 35.0553C45.3548 34.4845 47.6339 33.5163 49.6343 32.1425L48.5021 30.4938ZM41.5909 34.0795V34.7614H43.5909V34.0795H41.5909ZM42.5482 35.7605C45.0386 35.8669 47.3659 36.5673 49.5436 37.8696L50.5701 36.1531C48.1114 34.6827 45.4614 33.8831 42.6336 33.7623L42.5482 35.7605ZM49.5472 37.8718C51.732 39.1657 53.5113 40.9817 54.8857 43.3438L56.6143 42.338C55.0796 39.7001 53.0634 37.6298 50.5664 36.1509L49.5472 37.8718ZM54.8877 43.3472C56.236 45.6435 56.9318 48.416 56.9318 51.7045H58.9318C58.9318 48.1295 58.1731 44.9928 56.6123 42.3346L54.8877 43.3472ZM56.9318 51.7045C56.9318 55.2348 56.0574 58.3534 54.3254 61.0903L56.0155 62.1597C57.9654 59.0784 58.9318 55.5834 58.9318 51.7045H56.9318ZM54.3243 61.092C52.6229 63.7931 50.0878 65.9592 46.6646 67.5727L47.5173 69.3818C51.2304 67.6317 54.0817 65.2297 56.0166 62.158L54.3243 61.092ZM46.6646 67.5727C43.2657 69.1747 39.0233 70 33.8977 70V72C39.2267 72 43.7798 71.1435 47.5173 69.3818L46.6646 67.5727ZM33.8977 70H4.06818V72H33.8977V70ZM18.8295 59.9318H30.8636V57.9318H18.8295V59.9318ZM30.8636 59.9318C35.0655 59.9318 38.3503 59.1381 40.5029 57.3485L39.2244 55.8106C37.6043 57.1574 34.889 57.9318 30.8636 57.9318V59.9318ZM40.5083 57.344C42.637 55.5487 43.6932 53.1468 43.6932 50.2386H41.6932C41.6932 52.6032 40.863 54.4285 39.2189 55.8151L40.5083 57.344ZM43.6932 50.2386C43.6932 48.1387 43.1843 46.2451 42.1413 44.5915L40.4497 45.6585C41.2702 46.9594 41.6932 48.4749 41.6932 50.2386H43.6932ZM42.1413 44.5915C41.1003 42.9412 39.6219 41.6626 37.7445 40.7486L36.8691 42.5468C38.4463 43.3147 39.627 44.3542 40.4497 45.6585L42.1413 44.5915ZM37.7492 40.7509C35.8777 39.8276 33.6851 39.3864 31.2045 39.3864V41.3864C33.4513 41.3864 35.3268 41.786 36.8644 42.5445L37.7492 40.7509ZM31.2045 39.3864H18.8295V41.3864H31.2045V39.3864ZM17.8295 40.3864V58.9318H19.8295V40.3864H17.8295ZM18.8295 31.3977H29.7727V29.3977H18.8295V31.3977ZM29.7727 31.3977C31.9121 31.3977 33.8511 31.0248 35.5689 30.2531L34.7493 28.4287C33.3307 29.0661 31.6788 29.3977 29.7727 29.3977V31.3977ZM35.5749 30.2504C37.3143 29.4552 38.7114 28.3208 39.7323 26.8405L38.0859 25.705C37.2886 26.861 36.1857 27.7721 34.7433 28.4314L35.5749 30.2504ZM39.7257 26.85C40.7931 25.3399 41.3068 23.5516 41.3068 21.5341H39.3068C39.3068 23.1984 38.8887 24.5692 38.0925 25.6955L39.7257 26.85ZM41.3068 21.5341C41.3068 18.7416 40.2979 16.4229 38.266 14.6739L36.9613 16.1897C38.5202 17.5316 39.3068 19.2811 39.3068 21.5341H41.3068ZM38.2708 14.678C36.2556 12.9212 33.4655 12.1136 30.0455 12.1136V14.1136C33.1709 14.1136 35.4262 14.8515 36.9565 16.1856L38.2708 14.678ZM30.0455 12.1136H18.8295V14.1136H30.0455V12.1136ZM17.8295 13.1136V30.3977H19.8295V13.1136H17.8295ZM127.366 55.5227L126.487 55.0473L126.485 55.0502L127.366 55.5227ZM115.639 67.7614L116.132 68.6313L116.134 68.6306L115.639 67.7614ZM82.2983 67.7273L82.7944 66.859L82.2983 67.7273ZM70.6051 55.4886L69.7238 55.9612L69.7238 55.9612L70.6051 55.4886ZM70.6051 16.6591L71.4864 17.1316L71.4864 17.1316L70.6051 16.6591ZM82.2983 4.45455L82.7914 5.32452L82.7944 5.32279L82.2983 4.45455ZM115.639 4.45455L115.143 5.3228L115.148 5.32548L115.639 4.45455ZM127.366 16.6591L126.485 17.1316L126.487 17.1345L127.366 16.6591ZM114.514 23.6136L113.595 24.0083L113.598 24.0135L114.514 23.6136ZM108.344 15.9091L107.794 16.7444L107.794 16.7444L108.344 15.9091ZM89.6619 15.9091L90.2117 16.7444L90.2117 16.7444L89.6619 15.9091ZM83.4574 23.6136L82.5408 23.2138L82.5386 23.219L83.4574 23.6136ZM83.4574 48.5682L82.5385 48.9629L82.5408 48.968L83.4574 48.5682ZM89.6619 56.2727L90.2117 55.4374L90.2117 55.4374L89.6619 56.2727ZM108.344 56.2727L107.794 55.4374L107.794 55.4374L108.344 56.2727ZM114.514 48.5682L113.598 48.1683L113.595 48.1735L114.514 48.5682ZM130.696 36.0909C130.696 43.5799 129.277 49.885 126.487 55.0473L128.246 55.9982C131.229 50.4787 132.696 43.8291 132.696 36.0909H130.696ZM126.485 55.0502C123.705 60.236 119.925 64.1731 115.145 66.8921L116.134 68.6306C121.262 65.7133 125.301 61.4912 128.248 55.9953L126.485 55.0502ZM115.146 66.8914C110.377 69.5943 105.004 70.9545 99.0028 70.9545V72.9545C105.319 72.9545 111.037 71.5193 116.132 68.6313L115.146 66.8914ZM99.0028 70.9545C92.9558 70.9545 87.5614 69.583 82.7944 66.859L81.8022 68.5955C86.8988 71.5079 92.6408 72.9545 99.0028 72.9545V70.9545ZM82.7944 66.859C78.0366 64.1403 74.2676 60.2031 71.4864 55.0161L69.7238 55.9612C72.6699 61.456 76.6963 65.6779 81.8022 68.5955L82.7944 66.859ZM71.4864 55.0161C68.718 49.8527 67.3097 43.5578 67.3097 36.0909H65.3097C65.3097 43.8058 66.765 50.4427 69.7238 55.9612L71.4864 55.0161ZM67.3097 36.0909C67.3097 28.6007 68.7182 22.2946 71.4864 17.1316L69.7238 16.1866C66.7648 21.7054 65.3097 28.3538 65.3097 36.0909H67.3097ZM71.4864 17.1316C74.2672 11.9452 78.0354 8.02032 82.7914 5.32451L81.8052 3.58458C76.6976 6.47967 72.6703 10.6912 69.7238 16.1866L71.4864 17.1316ZM82.7944 5.32279C87.5614 2.59879 92.9558 1.22727 99.0028 1.22727V-0.77273C92.6408 -0.77273 86.8988 0.673936 81.8022 3.5863L82.7944 5.32279ZM99.0028 1.22727C105.003 1.22727 110.375 2.59815 115.143 5.32279L116.135 3.5863C111.04 0.674575 105.321 -0.77273 99.0028 -0.77273V1.22727ZM115.148 5.32548C119.926 8.02162 123.705 11.9464 126.485 17.1316L128.248 16.1866C125.301 10.69 121.261 6.47838 116.131 3.58361L115.148 5.32548ZM126.487 17.1345C129.277 22.2969 130.696 28.6019 130.696 36.0909H132.696C132.696 28.3527 131.229 21.7031 128.246 16.1837L126.487 17.1345ZM117.73 36.0909C117.73 31.0651 116.978 26.7609 115.431 23.2138L113.598 24.0135C115.005 27.2391 115.73 31.253 115.73 36.0909H117.73ZM115.433 23.219C113.914 19.6818 111.741 16.9475 108.893 15.0738L107.794 16.7444C110.265 18.3706 112.206 20.7727 113.595 24.0083L115.433 23.219ZM108.893 15.0738C106.052 13.2036 102.742 12.2841 99.0028 12.2841V14.2841C102.4 14.2841 105.317 15.1145 107.794 16.7444L108.893 15.0738ZM99.0028 12.2841C95.2637 12.2841 91.9538 13.2036 89.1122 15.0738L90.2117 16.7444C92.6883 15.1145 95.6056 14.2841 99.0028 14.2841V12.2841ZM89.1122 15.0738C86.2665 16.9466 84.0828 19.679 82.5408 23.2138L84.374 24.0135C85.7865 20.7756 87.7392 18.3716 90.2117 16.7444L89.1122 15.0738ZM82.5386 23.219C81.0156 26.7645 80.2756 31.0668 80.2756 36.0909H82.2756C82.2756 31.2514 82.99 27.2355 84.3762 24.0083L82.5386 23.219ZM80.2756 36.0909C80.2756 41.115 81.0156 45.4173 82.5386 48.9628L84.3762 48.1735C82.99 44.9463 82.2756 40.9304 82.2756 36.0909H80.2756ZM82.5408 48.968C84.0828 52.5029 86.2665 55.2353 89.1122 57.1081L90.2117 55.4374C87.7392 53.8102 85.7865 51.4062 84.374 48.1683L82.5408 48.968ZM89.1122 57.1081C91.9538 58.9782 95.2637 59.8977 99.0028 59.8977V57.8977C95.6056 57.8977 92.6883 57.0673 90.2117 55.4374L89.1122 57.1081ZM99.0028 59.8977C102.742 59.8977 106.052 58.9782 108.893 57.1081L107.794 55.4374C105.317 57.0673 102.4 57.8977 99.0028 57.8977V59.8977ZM108.893 57.1081C111.741 55.2343 113.914 52.5 115.433 48.9628L113.595 48.1735C112.206 51.4091 110.265 53.8112 107.794 55.4374L108.893 57.1081ZM115.431 48.968C116.978 45.4209 117.73 41.1167 117.73 36.0909H115.73C115.73 40.9288 115.005 44.9428 113.598 48.1683L115.431 48.968ZM142.631 1.18182V0.181816H141.631V1.18182H142.631ZM160.835 1.18182L161.761 0.802555L161.506 0.181816H160.835V1.18182ZM180.062 48.0909L179.137 48.4702L179.392 49.0909H180.062V48.0909ZM180.881 48.0909V49.0909H181.552L181.806 48.4702L180.881 48.0909ZM200.108 1.18182V0.181816H199.437L199.183 0.802555L200.108 1.18182ZM218.312 1.18182H219.312V0.181816H218.312V1.18182ZM218.312 71V72H219.312V71H218.312ZM203.994 71H202.994V72H203.994V71ZM203.994 25.5568H204.994V24.5568H203.994V25.5568ZM203.415 25.5568V24.5568H202.738L202.486 25.1849L203.415 25.5568ZM185.347 70.6591V71.6591H186.023L186.275 71.031L185.347 70.6591ZM175.597 70.6591L174.668 71.0298L174.919 71.6591H175.597V70.6591ZM157.528 25.3864L158.457 25.0157L158.206 24.3864H157.528V25.3864ZM156.949 25.3864V24.3864H155.949V25.3864H156.949ZM156.949 71V72H157.949V71H156.949ZM142.631 71H141.631V72H142.631V71ZM142.631 2.18182H160.835V0.181816H142.631V2.18182ZM159.91 1.56108L179.137 48.4702L180.988 47.7116L161.761 0.802555L159.91 1.56108ZM180.062 49.0909H180.881V47.0909H180.062V49.0909ZM181.806 48.4702L201.033 1.56108L199.183 0.802555L179.955 47.7116L181.806 48.4702ZM200.108 2.18182H218.312V0.181816H200.108V2.18182ZM217.312 1.18182V71H219.312V1.18182H217.312ZM218.312 70H203.994V72H218.312V70ZM204.994 71V25.5568H202.994V71H204.994ZM203.994 24.5568H203.415V26.5568H203.994V24.5568ZM202.486 25.1849L184.418 70.2872L186.275 71.031L204.343 25.9287L202.486 25.1849ZM185.347 69.6591H175.597V71.6591H185.347V69.6591ZM176.525 70.2884L158.457 25.0157L156.6 25.757L174.668 71.0298L176.525 70.2884ZM157.528 24.3864H156.949V26.3864H157.528V24.3864ZM155.949 25.3864V71H157.949V25.3864H155.949ZM156.949 70H142.631V72H156.949V70ZM143.631 71V1.18182H141.631V71H143.631ZM245.236 1.18182H246.236V0.181816H245.236V1.18182ZM245.236 71V72H246.236V71H245.236ZM230.474 71H229.474V72H230.474V71ZM230.474 1.18182V0.181816H229.474V1.18182H230.474ZM244.236 1.18182V71H246.236V1.18182H244.236ZM245.236 70H230.474V72H245.236V70ZM231.474 71V1.18182H229.474V71H231.474ZM230.474 2.18182H245.236V0.181816H230.474V2.18182ZM315.778 1.18182H316.778V0.181816H315.778V1.18182ZM315.778 71V72H316.778V71H315.778ZM303.028 71L302.206 71.5686L302.504 72H303.028V71ZM272.653 27.0568L273.476 26.4882L273.178 26.0568H272.653V27.0568ZM272.142 27.0568V26.0568H271.142V27.0568H272.142ZM272.142 71V72H273.142V71H272.142ZM257.381 71H256.381V72H257.381V71ZM257.381 1.18182V0.181816H256.381V1.18182H257.381ZM270.335 1.18182L271.16 0.615939L270.862 0.181816H270.335V1.18182ZM300.472 45.0909L299.647 45.6568L299.945 46.0909H300.472V45.0909ZM301.085 45.0909V46.0909H302.085V45.0909H301.085ZM301.085 1.18182V0.181816H300.085V1.18182H301.085ZM314.778 1.18182V71H316.778V1.18182H314.778ZM315.778 70H303.028V72H315.778V70ZM303.851 70.4314L273.476 26.4882L271.831 27.6254L302.206 71.5686L303.851 70.4314ZM272.653 26.0568H272.142V28.0568H272.653V26.0568ZM271.142 27.0568V71H273.142V27.0568H271.142ZM272.142 70H257.381V72H272.142V70ZM258.381 71V1.18182H256.381V71H258.381ZM257.381 2.18182H270.335V0.181816H257.381V2.18182ZM269.511 1.74769L299.647 45.6568L301.296 44.525L271.16 0.615939L269.511 1.74769ZM300.472 46.0909H301.085V44.0909H300.472V46.0909ZM302.085 45.0909V1.18182H300.085V45.0909H302.085ZM301.085 2.18182H315.778V0.181816H301.085V2.18182ZM365.849 21.2614L364.854 21.3601L364.944 22.2614H365.849V21.2614ZM347.815 13.5909L348.185 14.5203L348.195 14.5158L347.815 13.5909ZM343.997 16.3523L343.197 15.7522L343.19 15.7623L343.997 16.3523ZM342.702 20.375L343.701 20.4113L343.702 20.3932V20.375H342.702ZM343.486 23.6477L342.632 24.1683L342.637 24.1758L342.641 24.1833L343.486 23.6477ZM345.906 26.0682L345.352 26.9002L345.358 26.9045L345.365 26.9088L345.906 26.0682ZM349.452 27.8068L349.102 28.7438L349.109 28.7464L349.116 28.7489L349.452 27.8068ZM353.747 29.0341L353.98 28.0615L353.973 28.0598L353.966 28.0582L353.747 29.0341ZM360.02 30.5341L359.787 31.5067L359.794 31.5084L359.801 31.5099L360.02 30.5341ZM368.406 33.2614L367.999 34.1745L367.999 34.1745L368.406 33.2614ZM375.02 37.4545L375.685 36.7076L375.685 36.7076L375.02 37.4545ZM379.349 43.3182L378.439 43.732L378.443 43.7396L379.349 43.3182ZM380.952 51.0568L381.952 51.0621L381.952 51.049L380.952 51.0568ZM377.679 62.1705L376.855 61.6034L376.854 61.6047L377.679 62.1705ZM368.406 69.4318L368.796 70.3526L368.799 70.3515L368.406 69.4318ZM339.122 69.3977L338.739 70.3213L338.74 70.322L339.122 69.3977ZM329.372 61.7273L328.545 62.2896L328.55 62.2959L329.372 61.7273ZM325.724 49.0795V48.0795H324.702L324.725 49.1022L325.724 49.0795ZM340.009 49.0795L341.006 49.0117L340.943 48.0795H340.009V49.0795ZM342.02 54.9432L341.221 55.545L341.226 55.5515L341.231 55.5579L342.02 54.9432ZM346.827 58.4545L346.457 59.3838L346.47 59.3887L346.827 58.4545ZM360.19 58.5227L359.827 57.5911L359.823 57.5927L360.19 58.5227ZM364.52 55.4886L365.305 56.1083L365.305 56.1083L364.52 55.4886ZM364.656 47.0682L363.895 47.7163L363.903 47.7256L364.656 47.0682ZM360.634 44.3409L360.24 45.2601L360.244 45.2619L360.634 44.3409ZM354.19 42.2955L353.947 43.2654L353.956 43.2676L354.19 42.2955ZM346.588 40.3864L346.832 39.4164L346.824 39.4147L346.588 40.3864ZM332.645 33.6705L331.979 34.4162L331.979 34.4162L332.645 33.6705ZM327.565 21.3636L328.565 21.368L328.565 21.3583L327.565 21.3636ZM330.94 10.2841L330.131 9.69626L330.129 9.70009L330.94 10.2841ZM367.588 2.88636L367.171 3.79526L367.173 3.79618L367.588 2.88636ZM376.656 10.2841L375.831 10.8483L375.831 10.8484L376.656 10.2841ZM379.997 21.2614V22.2614H381.014L380.997 21.245L379.997 21.2614ZM366.845 21.1627C366.546 18.1549 365.246 15.7515 362.931 14.047L361.745 15.6575C363.566 16.9985 364.607 18.8678 364.854 21.3601L366.845 21.1627ZM362.931 14.047C360.636 12.3576 357.597 11.5682 353.918 11.5682V13.5682C357.329 13.5682 359.903 14.3014 361.745 15.6575L362.931 14.047ZM353.918 11.5682C351.42 11.5682 349.249 11.9207 347.435 12.666L348.195 14.5158C349.7 13.8974 351.597 13.5682 353.918 13.5682V11.5682ZM347.446 12.6616C345.652 13.3744 344.215 14.395 343.197 15.7523L344.797 16.9523C345.552 15.9459 346.661 15.1256 348.185 14.5203L347.446 12.6616ZM343.19 15.7623C342.198 17.1198 341.702 18.6685 341.702 20.375H343.702C343.702 19.0815 344.069 17.9483 344.805 16.9423L343.19 15.7623ZM341.702 20.3387C341.651 21.7551 341.947 23.0457 342.632 24.1683L344.34 23.1271C343.888 22.3862 343.662 21.4949 343.701 20.4113L341.702 20.3387ZM342.641 24.1833C343.315 25.2459 344.226 26.1498 345.352 26.9002L346.461 25.2361C345.541 24.6229 344.838 23.9132 344.33 23.1122L342.641 24.1833ZM345.365 26.9088C346.457 27.6129 347.705 28.2229 349.102 28.7438L349.801 26.8698C348.516 26.3907 347.401 25.8416 346.448 25.2276L345.365 26.9088ZM349.116 28.7489C350.499 29.241 351.97 29.661 353.529 30.0099L353.966 28.0582C352.479 27.7254 351.086 27.3272 349.787 26.8647L349.116 28.7489ZM353.515 30.0067L359.787 31.5067L360.252 29.5615L353.98 28.0615L353.515 30.0067ZM359.801 31.5099C362.789 32.1789 365.521 33.0683 367.999 34.1745L368.814 32.3482C366.201 31.1817 363.341 30.2529 360.238 29.5582L359.801 31.5099ZM367.999 34.1745C370.461 35.2738 372.576 36.6181 374.355 38.2014L375.685 36.7076C373.736 34.9728 371.442 33.5216 368.814 32.3482L367.999 34.1745ZM374.355 38.2014C376.115 39.7687 377.475 41.6102 378.439 43.732L380.26 42.9044C379.179 40.5262 377.652 38.4585 375.685 36.7076L374.355 38.2014ZM378.443 43.7396C379.418 45.8395 379.93 48.274 379.952 51.0646L381.952 51.049C381.928 48.0214 381.372 45.2969 380.256 42.8968L378.443 43.7396ZM379.952 51.0515C379.93 55.149 378.887 58.6521 376.855 61.6034L378.503 62.7375C380.789 59.416 381.928 55.5101 381.952 51.0621L379.952 51.0515ZM376.854 61.6047C374.842 64.5374 371.914 66.8469 368.014 68.5121L368.799 70.3515C372.99 68.5622 376.243 66.0308 378.504 62.7362L376.854 61.6047ZM368.016 68.5111C364.148 70.1502 359.436 70.9886 353.849 70.9886V72.9886C359.627 72.9886 364.619 72.1226 368.796 70.3526L368.016 68.5111ZM353.849 70.9886C348.313 70.9886 343.539 70.1401 339.504 68.4735L338.74 70.322C343.069 72.1099 348.113 72.9886 353.849 72.9886V70.9886ZM339.506 68.4742C335.507 66.8134 332.416 64.3722 330.195 61.1586L328.55 62.2959C331.01 65.855 334.419 68.5275 338.739 70.3213L339.506 68.4742ZM330.199 61.165C328.011 57.9472 326.834 53.9293 326.724 49.0569L324.725 49.1022C324.842 54.2752 326.097 58.6892 328.545 62.2896L330.199 61.165ZM325.724 50.0795H340.009V48.0795H325.724V50.0795ZM339.011 49.1473C339.18 51.6436 339.902 53.7939 341.221 55.545L342.818 54.3413C341.775 52.9561 341.155 51.1973 341.006 49.0117L339.011 49.1473ZM341.231 55.5579C342.556 57.2571 344.309 58.5293 346.457 59.3837L347.196 57.5253C345.345 56.7889 343.893 55.7201 342.809 54.3284L341.231 55.5579ZM346.47 59.3887C348.625 60.2119 351.033 60.6136 353.679 60.6136V58.6136C351.234 58.6136 349.074 58.2427 347.184 57.5204L346.47 59.3887ZM353.679 60.6136C356.273 60.6136 358.574 60.2367 360.558 59.4528L359.823 57.5927C358.125 58.2633 356.085 58.6136 353.679 58.6136V60.6136ZM360.554 59.4543C362.548 58.6761 364.151 57.5702 365.305 56.1083L363.735 54.869C362.844 55.998 361.56 56.9148 359.827 57.5911L360.554 59.4543ZM365.305 56.1083C366.47 54.6327 367.054 52.9248 367.054 51.0227H365.054C365.054 52.4843 364.616 53.7536 363.735 54.869L365.305 56.1083ZM367.054 51.0227C367.054 49.2405 366.518 47.6809 365.41 46.4108L363.903 47.7256C364.658 48.5918 365.054 49.6686 365.054 51.0227H367.054ZM365.418 46.4201C364.377 45.1974 362.889 44.2093 361.023 43.4199L360.244 45.2619C361.924 45.9726 363.117 46.8025 363.895 47.7163L365.418 46.4201ZM361.027 43.4218C359.211 42.6432 357.006 41.9456 354.425 41.3233L353.956 43.2676C356.466 43.8726 358.556 44.5386 360.24 45.2601L361.027 43.4218ZM354.434 41.3256L346.832 39.4165L346.345 41.3562L353.947 43.2653L354.434 41.3256ZM346.824 39.4147C341.048 38.0096 336.564 35.8309 333.311 32.9247L331.979 34.4162C335.544 37.6009 340.356 39.8995 346.352 41.358L346.824 39.4147ZM333.311 32.9247C330.144 30.0957 328.544 26.2818 328.565 21.368L326.565 21.3592C326.542 26.7637 328.327 31.1543 331.979 34.4162L333.311 32.9247ZM328.565 21.3583C328.544 17.3232 329.614 13.8406 331.752 10.8681L330.129 9.70009C327.722 13.0458 326.542 16.9496 326.565 21.369L328.565 21.3583ZM331.749 10.8719C333.929 7.87185 336.93 5.51076 340.789 3.8006L339.978 1.97212C335.837 3.80742 332.542 6.37815 330.131 9.69627L331.749 10.8719ZM340.789 3.8006C344.642 2.09292 349.046 1.22727 354.02 1.22727V-0.77273C348.812 -0.77273 344.125 0.134346 339.978 1.97212L340.789 3.8006ZM354.02 1.22727C359.089 1.22727 363.464 2.09422 367.171 3.79526L368.005 1.97747C363.985 0.133047 359.315 -0.77273 354.02 -0.77273V1.22727ZM367.173 3.79618C370.913 5.50232 373.786 7.85672 375.831 10.8483L377.482 9.71983C375.208 6.39328 372.035 3.81586 368.003 1.97654L367.173 3.79618ZM375.831 10.8484C377.87 13.8317 378.932 17.2966 378.997 21.2778L380.997 21.245C380.926 16.9079 379.761 13.0546 377.482 9.71983L375.831 10.8484ZM379.997 20.2614H365.849V22.2614H379.997V20.2614ZM450.71 55.5227L449.83 55.0473L449.829 55.0502L450.71 55.5227ZM438.983 67.7614L439.476 68.6313L439.477 68.6306L438.983 67.7614ZM405.642 67.7273L406.138 66.859L405.642 67.7273ZM393.949 55.4886L393.068 55.9612L393.068 55.9612L393.949 55.4886ZM393.949 16.6591L394.83 17.1316L394.83 17.1316L393.949 16.6591ZM405.642 4.45455L406.135 5.32452L406.138 5.32279L405.642 4.45455ZM438.983 4.45455L438.487 5.3228L438.492 5.32548L438.983 4.45455ZM450.71 16.6591L449.829 17.1316L449.83 17.1345L450.71 16.6591ZM437.858 23.6136L436.939 24.0083L436.941 24.0135L437.858 23.6136ZM431.688 15.9091L431.138 16.7444L431.138 16.7444L431.688 15.9091ZM413.006 15.9091L413.555 16.7444L413.555 16.7444L413.006 15.9091ZM406.801 23.6136L405.885 23.2138L405.882 23.219L406.801 23.6136ZM406.801 48.5682L405.882 48.9629L405.885 48.968L406.801 48.5682ZM413.006 56.2727L413.555 55.4374L413.555 55.4374L413.006 56.2727ZM431.688 56.2727L431.138 55.4374L431.138 55.4374L431.688 56.2727ZM437.858 48.5682L436.941 48.1683L436.939 48.1735L437.858 48.5682ZM454.04 36.0909C454.04 43.5799 452.62 49.885 449.83 55.0473L451.59 55.9982C454.573 50.4787 456.04 43.8291 456.04 36.0909H454.04ZM449.829 55.0502C447.048 60.236 443.269 64.1731 438.489 66.8921L439.477 68.6306C444.606 65.7133 448.645 61.4912 451.592 55.9953L449.829 55.0502ZM438.49 66.8914C433.721 69.5943 428.348 70.9545 422.347 70.9545V72.9545C428.663 72.9545 434.381 71.5193 439.476 68.6313L438.49 66.8914ZM422.347 70.9545C416.3 70.9545 410.905 69.583 406.138 66.859L405.146 68.5955C410.243 71.5079 415.985 72.9545 422.347 72.9545V70.9545ZM406.138 66.859C401.38 64.1403 397.611 60.2031 394.83 55.0161L393.068 55.9612C396.014 61.456 400.04 65.6779 405.146 68.5955L406.138 66.859ZM394.83 55.0161C392.062 49.8527 390.653 43.5578 390.653 36.0909H388.653C388.653 43.8058 390.109 50.4427 393.068 55.9612L394.83 55.0161ZM390.653 36.0909C390.653 28.6007 392.062 22.2946 394.83 17.1316L393.068 16.1866C390.109 21.7054 388.653 28.3538 388.653 36.0909H390.653ZM394.83 17.1316C397.611 11.9452 401.379 8.02032 406.135 5.32451L405.149 3.58458C400.041 6.47967 396.014 10.6912 393.068 16.1866L394.83 17.1316ZM406.138 5.32279C410.905 2.59879 416.3 1.22727 422.347 1.22727V-0.77273C415.985 -0.77273 410.243 0.673936 405.146 3.5863L406.138 5.32279ZM422.347 1.22727C428.347 1.22727 433.719 2.59815 438.487 5.32279L439.479 3.5863C434.384 0.674575 428.665 -0.77273 422.347 -0.77273V1.22727ZM438.492 5.32548C443.27 8.02162 447.049 11.9464 449.829 17.1316L451.592 16.1866C448.644 10.69 444.605 6.47838 439.474 3.58361L438.492 5.32548ZM449.83 17.1345C452.62 22.2969 454.04 28.6019 454.04 36.0909H456.04C456.04 28.3527 454.573 21.7031 451.59 16.1837L449.83 17.1345ZM441.074 36.0909C441.074 31.0651 440.322 26.7609 438.775 23.2138L436.941 24.0135C438.349 27.2391 439.074 31.253 439.074 36.0909H441.074ZM438.777 23.219C437.257 19.6818 435.084 16.9475 432.237 15.0738L431.138 16.7444C433.609 18.3706 435.549 20.7727 436.939 24.0083L438.777 23.219ZM432.237 15.0738C429.396 13.2036 426.086 12.2841 422.347 12.2841V14.2841C425.744 14.2841 428.661 15.1145 431.138 16.7444L432.237 15.0738ZM422.347 12.2841C418.607 12.2841 415.298 13.2036 412.456 15.0738L413.555 16.7444C416.032 15.1145 418.949 14.2841 422.347 14.2841V12.2841ZM412.456 15.0738C409.61 16.9466 407.427 19.679 405.885 23.2138L407.718 24.0135C409.13 20.7756 411.083 18.3716 413.555 16.7444L412.456 15.0738ZM405.882 23.219C404.359 26.7645 403.619 31.0668 403.619 36.0909H405.619C405.619 31.2514 406.334 27.2355 407.72 24.0083L405.882 23.219ZM403.619 36.0909C403.619 41.115 404.359 45.4173 405.882 48.9628L407.72 48.1735C406.334 44.9463 405.619 40.9304 405.619 36.0909H403.619ZM405.885 48.968C407.427 52.5029 409.61 55.2353 412.456 57.1081L413.555 55.4374C411.083 53.8102 409.13 51.4062 407.718 48.1683L405.885 48.968ZM412.456 57.1081C415.298 58.9782 418.607 59.8977 422.347 59.8977V57.8977C418.949 57.8977 416.032 57.0673 413.555 55.4374L412.456 57.1081ZM422.347 59.8977C426.086 59.8977 429.396 58.9782 432.237 57.1081L431.138 55.4374C428.661 57.0673 425.744 57.8977 422.347 57.8977V59.8977ZM432.237 57.1081C435.084 55.2343 437.257 52.5 438.777 48.9628L436.939 48.1735C435.549 51.4091 433.609 53.8112 431.138 55.4374L432.237 57.1081ZM438.775 48.968C440.322 45.4209 441.074 41.1167 441.074 36.0909H439.074C439.074 40.9288 438.349 44.9428 436.941 48.1683L438.775 48.968ZM465.974 71H464.974V72H465.974V71ZM465.974 1.18182V0.181816H464.974V1.18182H465.974ZM513.02 1.18182H514.02V0.181816H513.02V1.18182ZM513.02 13.3523V14.3523H514.02V13.3523H513.02ZM480.736 13.3523V12.3523H479.736V13.3523H480.736ZM480.736 29.9886H479.736V30.9886H480.736V29.9886ZM510.599 29.9886H511.599V28.9886H510.599V29.9886ZM510.599 42.1591V43.1591H511.599V42.1591H510.599ZM480.736 42.1591V41.1591H479.736V42.1591H480.736ZM480.736 58.8295H479.736V59.8295H480.736V58.8295ZM513.156 58.8295H514.156V57.8295H513.156V58.8295ZM513.156 71V72H514.156V71H513.156ZM466.974 71V1.18182H464.974V71H466.974ZM465.974 2.18182H513.02V0.181816H465.974V2.18182ZM512.02 1.18182V13.3523H514.02V1.18182H512.02ZM513.02 12.3523H480.736V14.3523H513.02V12.3523ZM479.736 13.3523V29.9886H481.736V13.3523H479.736ZM480.736 30.9886H510.599V28.9886H480.736V30.9886ZM509.599 29.9886V42.1591H511.599V29.9886H509.599ZM510.599 41.1591H480.736V43.1591H510.599V41.1591ZM479.736 42.1591V58.8295H481.736V42.1591H479.736ZM480.736 59.8295H513.156V57.8295H480.736V59.8295ZM512.156 58.8295V71H514.156V58.8295H512.156ZM513.156 70H465.974V72H513.156V70Z" fill="#BFE9F2" fill-opacity="0.36"/>
</g>
<defs>
<filter id="filter0_d_1_3" x="0.0681763" y="0.227264" width="517.088" height="79.7614" filterUnits="userSpaceOnUse" color-interpolation-filters="sRGB">
<feFlood flood-opacity="0" result="BackgroundImageFix"/>
<feColorMatrix in="SourceAlpha" type="matrix" values="0 0 0 0 0 0 0 0 0 0 0 0 0 0 0 0 0 0 127 0" result="hardAlpha"/>
<feOffset dy="4"/>
<feGaussianBlur stdDeviation="2"/>
<feComposite in2="hardAlpha" operator="out"/>
<feColorMatrix type="matrix" values="0 0 0 0 0 0 0 0 0 0 0 0 0 0 0 0 0 0 0.25 0"/>
<feBlend mode="normal" in2="BackgroundImageFix" result="effect1_dropShadow_1_3"/>
<feBlend mode="normal" in="SourceGraphic" in2="effect1_dropShadow_1_3" result="shape"/>
</filter>
</defs>
</svg>
